<?xml version="1.0" standalone="no"?>
<!DOCTYPE svg PUBLIC "-//W3C//DTD SVG 20010904//EN" "http://www.w3.org/TR/2001/REC-SVG-20010904/DTD/svg10.dtd">
<svg xmlns="http://www.w3.org/2000/svg" version="1.0" width="2042.000000pt" height="730.000000pt" viewBox="0 0 2042.000000 730.000000" preserveAspectRatio="xMidYMid meet">
<metadata>
Created by potrace 1.16, written by Peter Selinger 2001-2019
<meta name="Producer" content="Online-Convert"/></metadata>
<g transform="translate(0.000000,730.000000) scale(0.100000,-0.100000)" fill="#000000" stroke="none">
<path d="M19125 7268 c-742 -33 -949 -46 -1320 -84 -353 -36 -429 -47 -770 -114 -404 -79 -422 -83 -545 -114 -228 -58 -348 -92 -680 -191 -190 -57 -421 -123 -515 -148 -93 -25 -253 -69 -355 -97 -102 -28 -241 -67 -310 -85 -69 -18 -206 -56 -305 -83 -99 -28 -261 -69 -360 -92 -99 -23 -254 -59 -345 -81 -91 -23 -282 -67 -425 -100 -143 -32 -361 -83 -485 -114 -266 -65 -651 -154 -840 -195 -74 -16 -218 -48 -320 -70 -102 -23 -230 -49 -285 -60 -170 -31 -316 -60 -410 -80 -102 -23 -598 -105 -690 -115 -33 -4 -100 -13 -150 -21 -49 -7 -130 -18 -180 -24 -49 -5 -146 -17 -215 -26 -282 -35 -1087 -29 -1440 12 -69 8 -168 19 -220 25 -121 13 -284 42 -430 75 -185 43 -744 182 -880 220 -135 38 -1549 508 -1665 554 -89 35 -222 86 -302 116 -158 59 -913 292 -1023 316 -25 5 -104 23 -176 38 -73 16 -199 39 -280 50 -82 12 -194 28 -249 36 -291 43 -932 98 -1150 99 -336 1 -1257 -78 -1462 -126 -26 -6 -82 -21 -123 -34 -41 -13 -108 -33 -147 -44 l-73 -22 0 -2918 0 -2919 67 -32 c206 -97 333 -143 513 -185 81 -19 268 -79 535 -173 94 -33 215 -72 270 -87 55 -15 152 -42 215 -60 442 -127 804 -202 1170 -245 578 -66 549 -65 1330 -65 776 0 773 0 1345 65 522 60 941 112 1053 131 63 11 193 31 290 44 98 14 245 38 327 55 494 98 703 137 930 175 548 90 1080 195 1905 375 74 16 166 34 204 40 38 6 164 31 280 56 116 25 267 56 336 69 69 13 220 45 335 70 116 25 255 55 310 65 55 10 165 34 245 53 80 19 165 38 190 42 51 8 252 51 440 95 69 16 177 40 240 54 63 14 167 37 230 51 139 31 250 54 475 99 94 19 220 46 280 60 412 98 547 127 680 151 83 14 197 35 255 46 58 11 155 26 215 34 61 8 155 21 210 29 160 25 512 62 811 86 260 20 575 29 1059 30 482 0 723 -8 1020 -36 464 -43 577 -54 655 -64 47 -5 123 -14 170 -20 214 -25 452 -63 650 -104 91 -19 201 -42 245 -51 250 -52 701 -181 883 -254 l52 -21 -2 2887 -3 2887 -85 13 c-47 7 -148 20 -225 28 -77 8 -153 18 -170 21 -49 8 -627 10 -810 2z"/>
</g>
</svg>
